<?xml version="1.0" encoding="UTF-8" standalone="no"?>
<!-- Created with Inkscape (http://www.inkscape.org/) -->

<svg
   xmlns:dc="http://purl.org/dc/elements/1.1/"
   xmlns:cc="http://creativecommons.org/ns#"
   xmlns:rdf="http://www.w3.org/1999/02/22-rdf-syntax-ns#"
   xmlns:svg="http://www.w3.org/2000/svg"
   xmlns="http://www.w3.org/2000/svg"
   xmlns:sodipodi="http://sodipodi.sourceforge.net/DTD/sodipodi-0.dtd"
   xmlns:inkscape="http://www.inkscape.org/namespaces/inkscape"
   width="265.11249mm"
   height="264.58334mm"
   viewBox="0 0 265.11249 264.58334"
   version="1.1"
   id="svg8"
   inkscape:version="0.92.4 (5da689c313, 2019-01-14)"
   sodipodi:docname="susi.svg">
  <defs
     id="defs2" />
  <sodipodi:namedview
     id="base"
     pagecolor="#ffffff"
     bordercolor="#666666"
     borderopacity="1.0"
     inkscape:pageopacity="0.0"
     inkscape:pageshadow="2"
     inkscape:zoom="0.35"
     inkscape:cx="-70.428591"
     inkscape:cy="351.42859"
     inkscape:document-units="mm"
     inkscape:current-layer="layer1"
     showgrid="false"
     fit-margin-top="0"
     fit-margin-left="0"
     fit-margin-right="0"
     fit-margin-bottom="0"
     inkscape:window-width="1872"
     inkscape:window-height="1002"
     inkscape:window-x="48"
     inkscape:window-y="48"
     inkscape:window-maximized="1" />
  <metadata
     id="metadata5">
    <rdf:RDF>
      <cc:Work
         rdf:about="">
        <dc:format>image/svg+xml</dc:format>
        <dc:type
           rdf:resource="http://purl.org/dc/dcmitype/StillImage" />
        <dc:title></dc:title>
      </cc:Work>
    </rdf:RDF>
  </metadata>
  <g
     inkscape:label="Layer 1"
     inkscape:groupmode="layer"
     id="layer1"
     transform="translate(38.81815,22.767862)">
    <path
       inkscape:connector-curvature="0"
       id="path834"
       d="m 85.600466,227.23068 c -42.93582,-3.18932 -80.48188,-31.10197 -97.19334,-72.25588 -9.07182,-22.34042 -11.1773,-48.15486 -5.87251,-72.000299 6.93505,-31.17355 26.12662,-58.3924 52.73428,-74.7915204 17.73146,-10.928439 37.85491,-16.658155 58.53365,-16.666181 37.536594,-0.01457 72.607134,19.0050914 93.907744,50.9286014 8.06441,12.08625 13.39495,24.23821 16.82886,38.36458 2.45092,10.08256 3.27312,17.29778 3.27127,28.707299 -0.002,10.90574 -0.74056,17.80639 -2.91765,27.25208 -6.3993,27.76446 -21.84349,51.60929 -44.35457,68.48059 -21.47485,16.09469 -48.29012,23.96014 -74.937734,21.98073 z m 54.934874,-23.66141 c 1.62265,-0.55289 3.03245,-1.78003 3.81174,-3.31788 0.87545,-1.72762 0.92394,-4.81017 0.10236,-6.50733 -1.4492,-2.99364 -5.32383,-4.29419 -8.71043,-2.92372 -1.19199,0.48236 -1.63288,0.85179 -2.43748,2.04239 -1.8378,2.71947 -2.22972,4.96728 -1.24528,7.14205 1.48029,3.27016 5.00018,4.74988 8.47909,3.56449 z m 12.54925,-5.33045 c 0.71514,-0.24367 1.98404,-0.88499 2.81977,-1.42515 0.83573,-0.54016 1.84488,-1.06377 2.24256,-1.16358 0.39768,-0.0998 1.24336,-0.53262 1.87927,-0.96179 0.63592,-0.42918 1.60211,-1.0078 2.14709,-1.28583 0.54498,-0.27802 1.73984,-1.0196 2.65525,-1.64795 0.91541,-0.62835 1.92782,-1.32104 2.2498,-1.53932 2.31886,-1.57204 8.15759,-6.93307 10.95005,-10.05417 10.24402,-11.44964 16.07931,-24.65262 18.0668,-40.87813 0.48274,-3.94104 0.41433,-13.2942 -0.12967,-17.72708 -0.65951,-5.37414 -1.94481,-11.69994 -3.24843,-15.98765 -0.89621,-2.94768 -3.96272,-11.074419 -4.47216,-11.851919 -0.51638,-0.7881 -1.4428,-0.77422 -2.99302,0.0449 -0.67454,0.35639 -1.98873,0.96086 -2.92043,1.34325 -0.9317,0.3824 -1.98185,0.88388 -2.33367,1.1144 -0.35182,0.23052 -1.01827,0.60832 -1.481,0.83956 -1.14936,0.57435 -1.18594,1.32037 -0.17259,3.518869 1.55613,3.37606 3.65047,9.88065 4.63969,14.40991 1.90818,8.73685 2.19889,19.09432 0.77103,27.47081 -1.6077,9.43153 -5.95726,19.24432 -11.72776,26.45834 -2.74637,3.43339 -9.61859,10.13544 -12.05053,11.75213 -0.3464,0.23029 -1.38744,0.9499 -2.31342,1.59913 -1.96027,1.37444 -2.85361,1.89227 -6.44609,3.73654 -2.9978,1.53898 -3.57187,1.9685 -3.57187,2.67246 0,1.13501 3.63038,10.00536 4.09492,10.00536 0.0243,0 0.62927,-0.19937 1.34441,-0.44304 z M 44.512216,145.11859 c 3.16684,-0.5647 5.7757,-1.95392 8.17494,-4.35316 4.88198,-4.88198 5.79386,-11.05906 2.55793,-17.32735 -1.53093,-2.96554 -5.45997,-6.85414 -11.84999,-11.72797 -6.67535,-5.09147 -7.82206,-6.61904 -7.62231,-10.15396 0.19035,-3.368859 2.31961,-5.268039 5.9062,-5.268039 2.81084,0 4.64864,0.98721 6.97098,3.744599 0.96851,1.14993 2.01816,2.15728 2.33256,2.23855 0.42203,0.10908 1.1627,-0.291 2.82993,-1.52863 1.24206,-0.922019 2.32764,-1.843729 2.4124,-2.048259 0.34546,-0.83356 -3.73085,-5.37683 -6.29708,-7.01842 -4.79456,-3.06704 -11.11831,-3.14826 -15.67776,-0.20135 -3.08333,1.99286 -4.80284,4.58974 -5.58781,8.43901 -0.56658,2.778289 -0.20094,5.210719 1.23497,8.215779 1.32001,2.76251 3.32458,4.80544 9.13662,9.31145 5.2851,4.09749 8.7456,7.50893 9.79458,9.65574 1.62065,3.31674 0.7502,7.28926 -2.06312,9.41558 -1.719,1.29921 -3.39082,1.8481 -5.61479,1.84343 -3.31797,-0.007 -5.84477,-1.7235 -8.62611,-5.85994 -0.9626,-1.4316 -1.7512,-2.3408 -2.03019,-2.34069 -0.62824,2.5e-4 -5.09377,2.62155 -5.2763,3.09723 -0.28977,0.75511 2.18273,4.5242 4.63445,7.0648 2.6747,2.77165 5.95239,4.45844 9.57096,4.92547 2.22132,0.28669 2.87587,0.27076 5.08894,-0.12387 z m 46.74682,-0.30021 c 2.71995,-0.62013 5.17608,-2.06947 7.57615,-4.47063 2.411894,-2.41299 3.523124,-4.3834 4.350694,-7.71463 0.90421,-3.6397 1.06726,-7.37494 1.06749,-24.45433 1.9e-4,-13.877769 -0.0604,-16.635019 -0.37532,-17.065629 -0.3311,-0.4528 -0.70943,-0.51359 -3.19633,-0.51359 -2.486904,0 -2.865244,0.0608 -3.196334,0.51359 -0.31544,0.43139 -0.37639,3.37449 -0.38079,18.388539 -0.003,10.35459 -0.11555,18.65416 -0.26744,19.72704 -0.52057,3.6771 -2.78247,6.78558 -6.01962,8.27261 -2.13724,0.98178 -5.39843,1.13382 -7.9103,0.36881 -3.32274,-1.01198 -5.76435,-3.03512 -6.71819,-5.56675 -0.85232,-2.26219 -1.01887,-6.2588 -1.02979,-24.71091 l -0.01,-16.609159 -0.67869,-0.25803 c -0.37327,-0.14192 -1.66977,-0.25803 -2.8811,-0.25803 -1.7035,0 -2.33186,0.10489 -2.77378,0.46302 l -0.57136,0.46302 0.0956,19.711459 c 0.10561,21.77553 0.0845,21.48507 1.82526,25.07902 1.30945,2.70341 4.45389,5.75225 7.36532,7.14141 4.27942,2.04187 9.04722,2.56044 13.72836,1.49317 z m 40.511224,0.1004 c 4.05515,-0.93961 8.33453,-4.39019 10.12678,-8.16551 2.13738,-4.5023 2.01603,-8.65896 -0.38767,-13.27917 -1.79978,-3.45941 -5.22868,-6.78321 -13.17869,-12.77475 -5.01891,-3.7825 -6.34263,-5.63672 -6.34742,-8.89123 -0.002,-1.54621 0.10017,-1.907989 0.85731,-3.027629 1.2081,-1.7865 2.6504,-2.49406 5.0687,-2.48657 2.96295,0.009 5.09254,1.22133 7.47631,4.255499 1.73726,2.21124 2.00837,2.22268 4.69948,0.19838 1.22951,-0.924859 2.30581,-1.848899 2.39178,-2.053429 0.36989,-0.88004 -3.99375,-5.63796 -6.63192,-7.23114 -5.90057,-3.56333 -13.61014,-2.60904 -17.95397,2.22234 -2.42184,2.69368 -3.63826,6.712949 -3.09304,10.219969 0.7875,5.06534 2.81205,7.6259 11.02387,13.94244 4.59578,3.53509 8.26948,7.20384 9.26714,9.25466 1.61746,3.32491 0.73588,7.28921 -2.09715,9.43041 -1.64133,1.24052 -3.46671,1.82381 -5.70755,1.82381 -3.28848,0 -5.91027,-1.87695 -8.84571,-6.33266 -0.81001,-1.22953 -1.40388,-1.86942 -1.73495,-1.86942 -0.63928,0 -5.0489,2.62148 -5.23784,3.11385 -0.29803,0.77668 2.51163,4.99109 4.8835,7.3251 4.11713,4.05141 9.76532,5.63552 15.42104,4.32505 z m 27.19321,-1.15296 0.58804,-0.41188 v -19.29348 -19.29348 l -0.65553,-0.42952 c -0.99525,-0.65212 -5.32032,-0.45284 -5.84825,0.26945 -0.52256,0.71494 -0.56564,38.17143 -0.0447,38.82832 0.48182,0.60751 0.89095,0.69839 3.24842,0.72158 1.52146,0.015 2.29075,-0.096 2.71198,-0.39099 z m 0.37066,-46.039479 c 3.29581,-2.32145 3.0006,-7.14922 -0.55184,-9.02469 -2.31636,-1.22289 -5.20841,-0.47832 -6.77141,1.74333 -0.69472,0.98748 -0.79362,1.35368 -0.79271,2.93519 7.9e-4,1.57948 0.10082,1.94864 0.79375,2.93245 1.72383,2.44748 4.96588,3.07343 7.32221,1.41372 z M 12.829336,95.986731 c 3.30265,-3.5493 2.45302,-8.32479 -1.85621,-10.4331 -1.26652,-0.61964 -1.68825,-0.69592 -3.23433,-0.58493 -2.86275,0.20549 -4.75082,1.46616 -5.85755,3.91107 -1.12118004,2.47686 -0.34794,5.38495 1.9421,7.3041 1.58155,1.3254 1.88835,1.40785 5.00989,1.34629 l 2.60778,-0.0514 z m 0.38498,-16.32512 c 0.14332,-0.26781 0.39208,-1.78586 0.5528,-3.37344 0.16072,-1.58759 0.39502,-3.36277 0.52068,-3.94485 0.12566,-0.58209 0.37441,-1.77271 0.55278,-2.64584 0.55427,-2.71316 1.79774,-6.73192 3.06741,-9.91347 3.28336,-8.22751 7.24418,-14.3127 13.18382,-20.25489 8.01672,-8.02015 16.40377,-12.77629 29.10866,-16.50697 6.21274,-1.82431 17.43974,-3.12056 23.28333,-2.68826 1.60657,0.11886 3.10822,0.11302 3.35193,-0.013 0.24284,-0.12559 0.50682,-0.55676 0.58663,-0.95815 0.4141,-2.08255 0.66536,-4.19732 0.81583,-6.86657 0.22941,-4.0696004 0.7265,-3.8261304 -7.85137,-3.8456304 -6.53619,-0.0149 -8.31856,0.12588 -14.49781,1.14474 -18.61652,3.0696004 -35.18242,11.9233004 -46.22169,24.7033304 -7.24397,8.38626 -12.59106,18.54563 -15.60157,29.64265 -0.70875,2.61254 -0.86262,3.48511 -1.94881,11.05127 -0.34753,2.42077 -0.32364,4.25448 0.0604,4.63853 0.22552,0.22552 1.83237,0.3175 5.54694,0.3175 4.8074,0 5.25047,-0.0393 5.49003,-0.48692 z"
       style="fill:#d9007e;stroke-width:0.26458332" />
  </g>
</svg>
